HIERARCHY
ROOT Hips
{
	OFFSET 2.449462 101.596024 -2.749595
	CHANNELS 6 Xposition Yposition Zposition Xrotation Yrotation Zrotation
	JOINT Chest
	{
		OFFSET 2.612992 13.391266 0.024119
		CHANNELS 3 Xrotation Yrotation Zrotation
		JOINT Chest2
		{
			OFFSET -2.008984 20.544006 5.742340
			CHANNELS 3 Xrotation Yrotation Zrotation
			JOINT Chest3
			{
				OFFSET -0.358135 14.777557 2.077352
				CHANNELS 3 Xrotation Yrotation Zrotation
				JOINT Neck
				{
					OFFSET -0.531175 17.029144 2.888285
					CHANNELS 3 Xrotation Yrotation Zrotation
					JOINT Head
					{
						OFFSET -4.079118 9.407166 2.166517
						CHANNELS 3 Xrotation Yrotation Zrotation
						End Site
						{
							OFFSET -4.057930 9.431198 2.100832
						}
					}
				}
				JOINT LeftCollar
				{
					OFFSET 4.055059 12.787888 4.672361
					CHANNELS 3 Xrotation Yrotation Zrotation
					JOINT LeftUpArm
					{
						OFFSET 14.980007 -0.811081 -9.134604
						CHANNELS 3 Xrotation Yrotation Zrotation
						JOINT LeftLowArm
						{
							OFFSET 25.009630 -21.018112 -8.513860
							CHANNELS 3 Xrotation Yrotation Zrotation
							JOINT LeftHand
							{
								OFFSET 20.418865 -16.739700 14.275833
								CHANNELS 3 Xrotation Yrotation Zrotation
								End Site
								{
									OFFSET 4.462685 -3.658539 3.120063
								}
							}
						}
					}
				}
				JOINT RightCollar
				{
					OFFSET -4.319027 12.399567 5.422668
					CHANNELS 3 Xrotation Yrotation Zrotation
					JOINT RightUpArm
					{
						OFFSET -17.182621 -2.018555 -3.029726
						CHANNELS 3 Xrotation Yrotation Zrotation
						JOINT RightLowArm
						{
							OFFSET -22.208525 -5.709229 24.777411
							CHANNELS 3 Xrotation Yrotation Zrotation
							JOINT RightHand
							{
								OFFSET -18.463490 7.823883 22.334736
								CHANNELS 3 Xrotation Yrotation Zrotation
								End Site
								{
									OFFSET -4.035370 1.710037 4.881477
								}
							}
						}
					}
				}
			}
		}
	}
	JOINT LeftUpLeg
	{
		OFFSET 9.704357 -1.896721 1.626970
		CHANNELS 3 Xrotation Yrotation Zrotation
		JOINT LeftLowLeg
		{
			OFFSET 0.093781 -47.262833 3.194566
			CHANNELS 3 Xrotation Yrotation Zrotation
			JOINT LeftFoot
			{
				OFFSET -4.301932 -41.681919 -15.642215
				CHANNELS 3 Xrotation Yrotation Zrotation
				JOINT LeftToe
				{
					OFFSET 1.231483 -16.541649 16.864666
					CHANNELS 3 Xrotation Yrotation Zrotation
					End Site
					{
						OFFSET 1.329906 -2.055792 23.527941
					}
				}
			}
		}
	}
	JOINT RightUpLeg
	{
		OFFSET -9.704399 1.896530 -1.626971
		CHANNELS 3 Xrotation Yrotation Zrotation
		JOINT RightLowLeg
		{
			OFFSET -35.602795 -10.175735 29.545006
			CHANNELS 3 Xrotation Yrotation Zrotation
			JOINT RightFoot
			{
				OFFSET -7.986683 -43.962284 -2.027403
				CHANNELS 3 Xrotation Yrotation Zrotation
				JOINT RightToe
				{
					OFFSET 1.827560 -5.793667 22.861546
					CHANNELS 3 Xrotation Yrotation Zrotation
					End Site
					{
						OFFSET -7.671982 6.914989 21.280972
					}
				}
			}
		}
	}
}
MOTION
Frames: 13
Frame Time: 0.033333
1.978489 107.933868 -3.975721 -8.665978 -0.292681 -7.199462 2.150506 -0.516925 5.969302 -6.402160 -2.099362 0.725957 6.180698 0.655926 -3.009988 -6.917020 1.938311 -3.670837 0.000001 -0.000001 -0.000000 -3.611618 0.065663 2.071121 -0.638704 9.207948 5.066086 -2.857280 3.280007 -8.764701 0.000001 0.000001 0.000004 -2.573165 3.495013 -0.285831 -11.231284 1.821047 -7.076123 -10.636753 18.618817 -3.586749 0.000002 -0.000000 0.000001 8.203844 0.471788 7.740225 -1.651273 -0.031553 2.135377 -0.357075 -1.268558 0.391653 0.000000 -0.000000 0.000000 -17.864995 5.180281 -27.518964 9.939803 3.914042 15.253902 3.965740 -3.682680 -6.330326 -0.000003 0.000002 -0.000000 
1.966842 108.009163 -3.997281 -9.128948 -0.146408 -7.409038 2.419257 -0.522173 5.956294 -5.872195 -2.308138 1.021006 5.606734 0.091558 -3.323036 -6.943741 1.978730 -3.711652 0.000001 0.000000 -0.000001 -3.597876 0.146824 2.102139 -0.568303 9.141354 4.923277 -2.023794 3.996935 -7.976922 0.000003 0.000004 0.000002 -2.471664 3.546465 -0.174096 -11.326863 2.141169 -7.185799 -10.829223 18.673746 -4.166219 0.000002 -0.000004 -0.000000 8.170848 0.517689 7.914000 -0.941638 0.066980 2.340817 -0.342077 -1.607095 0.346761 0.000001 0.000000 -0.000000 -18.071668 5.388189 -27.533497 10.176575 3.498942 15.006547 4.261448 -3.847640 -6.816778 -0.000002 -0.000001 0.000003 
1.955471 108.087990 -4.021161 -9.395013 -0.249015 -7.720862 2.829505 -0.551862 6.054768 -5.561767 -2.377575 1.116606 5.002644 0.186821 -3.279711 -6.836300 2.099753 -3.830517 -0.000001 -0.000001 0.000003 -3.518139 0.048925 2.240841 -0.841352 8.761908 4.519744 -1.761212 4.244346 -7.742589 0.000002 0.000001 0.000004 -2.511487 3.354504 0.051010 -11.426693 2.517350 -6.960511 -11.024911 18.943455 -4.289337 0.000001 -0.000002 0.000003 8.308818 0.577244 8.188518 -0.960832 0.185925 2.496749 -0.198533 -1.740447 -0.298790 0.000001 0.000000 -0.000000 -18.251358 5.644024 -27.271564 10.335052 3.313814 14.987015 4.734124 -3.955629 -7.610288 -0.000005 -0.000001 0.000004 
1.956543 108.162384 -4.038334 -9.129685 -0.114934 -7.884499 2.273352 -0.569064 6.119117 -5.737691 -2.476037 1.111790 5.101541 0.383769 -3.140203 -6.056255 2.223553 -4.052616 0.000003 -0.000003 -0.000000 -3.350106 0.033503 2.495966 -0.668558 9.034288 4.221263 -1.506449 4.190359 -7.701592 0.000001 0.000003 0.000004 -2.535368 3.000783 0.080737 -11.234215 2.328303 -7.089877 -10.955837 19.455968 -4.595913 0.000001 -0.000005 0.000003 7.942240 0.709081 8.314067 -0.657547 0.479238 2.860912 -0.391910 -3.268337 -0.399275 0.000000 -0.000000 -0.000000 -18.456609 5.589830 -27.730322 10.056218 3.149586 15.349571 4.599064 -4.216321 -8.214682 -0.000004 -0.000002 0.000001 
1.968869 108.228325 -4.048467 -9.378394 -0.164096 -8.108082 2.420640 -0.577986 6.291847 -3.788811 -2.377437 1.323598 3.222549 0.128284 -3.231118 -6.756542 2.197845 -4.271869 0.000000 -0.000002 0.000002 -3.429552 -0.017768 2.383024 -1.022348 8.744752 4.184455 -1.647755 3.745712 -7.941763 -0.000000 0.000007 0.000001 -2.531044 3.211519 0.191371 -11.579536 2.444704 -6.982583 -11.012178 19.812779 -4.872342 0.000003 -0.000003 0.000001 7.959799 0.885548 8.460115 -0.251820 0.682127 2.995569 -0.396344 -3.396146 -0.487597 0.000000 0.000000 -0.000000 -18.742449 5.811801 -27.721595 10.298914 2.941304 15.485627 4.779633 -4.057906 -8.530203 -0.000004 0.000001 0.000002 
1.984359 108.292534 -4.070829 -9.301086 -0.190945 -8.355308 2.278852 -0.618750 6.525149 -4.836076 -2.765171 1.505915 4.246290 0.519509 -3.459205 -7.612459 2.114727 -4.304873 0.000002 -0.000002 -0.000000 -3.224156 -0.587563 2.303128 -1.129287 8.684618 3.866025 -1.968880 3.421780 -7.698789 0.000003 0.000004 0.000006 -2.604492 2.907024 0.255941 -11.622078 2.678077 -6.988997 -11.043634 20.170604 -4.916930 -0.000001 -0.000002 0.000003 7.650840 0.951566 8.693911 -0.025539 0.588431 2.975653 -0.461901 -3.432899 -0.275185 0.000001 -0.000000 -0.000000 -18.716933 5.571305 -28.200955 10.446975 3.159843 15.957431 4.582231 -3.876680 -8.229093 -0.000005 -0.000000 0.000002 
2.003388 108.361893 -4.094228 -8.715056 -0.204164 -8.618457 1.712531 -0.607633 6.630432 -2.491709 -2.446300 1.571104 1.925299 0.285833 -3.280011 -8.032758 1.873415 -4.406219 0.000002 0.000000 0.000001 -3.347389 -0.929484 2.203281 -1.418345 8.880033 3.761928 -1.773229 4.050355 -7.438150 0.000004 0.000003 0.000006 -2.829073 2.835804 0.506915 -11.981371 2.528857 -6.775172 -10.962151 21.305139 -4.460115 0.000003 -0.000005 0.000002 6.722070 0.956020 9.014946 0.190793 0.578975 2.983470 -0.422372 -3.632692 -0.860190 0.000001 0.000000 0.000000 -18.822806 5.437249 -28.871671 10.378575 3.476245 16.501635 4.527798 -3.702897 -8.127655 0.000001 0.000002 0.000003 
2.027355 108.427315 -4.108849 -8.974423 0.134104 -8.753232 2.172062 -0.644849 6.654576 -2.582100 -2.542990 1.681625 1.887352 0.152525 -3.333467 -8.274025 1.885399 -4.432032 -0.000001 -0.000001 -0.000000 -3.129290 -0.796154 2.202317 -1.287137 8.666976 3.448475 -1.448958 4.146853 -6.752223 -0.000000 0.000003 -0.000003 -2.595986 2.795166 0.585169 -11.689063 2.722068 -6.868757 -11.511334 21.149042 -5.247549 0.000000 -0.000005 0.000005 6.655486 0.989223 9.127443 0.444806 0.505183 3.200841 -0.428270 -4.050310 -1.248904 0.000000 -0.000000 -0.000000 -18.814325 5.504013 -28.710147 10.319405 3.253199 16.204279 4.580747 -3.754062 -8.308933 -0.000003 -0.000000 0.000002 
2.057710 108.492638 -4.116924 -9.197435 -0.019358 -8.825067 2.504931 -0.626883 6.567856 -2.354624 -2.551336 1.743968 1.520992 0.355988 -3.213309 -8.294533 1.860704 -4.499452 0.000003 -0.000002 -0.000000 -3.128018 -0.499951 2.378178 -0.977155 9.084825 3.381225 -1.367191 3.947462 -6.893759 0.000001 0.000003 0.000004 -2.451251 3.072729 0.562269 -11.475703 2.287134 -7.127761 -11.699504 21.245128 -5.702372 0.000002 0.000001 -0.000001 6.851152 1.024497 9.223408 0.521799 0.549218 3.102410 -0.383239 -4.051684 -1.400764 -0.000000 0.000000 -0.000000 -19.015993 5.819978 -28.552812 10.628916 2.969548 16.060766 4.721196 -3.632455 -8.699790 -0.000000 0.000003 -0.000001 
2.093699 108.554848 -4.126593 -9.076988 -0.006819 -9.075664 2.561797 -0.654208 6.672539 -2.345665 -2.640723 1.842782 1.656151 0.268016 -3.210216 -8.454678 2.116747 -4.687257 -0.000001 0.000000 0.000001 -2.991034 -0.982771 2.229871 -0.849912 9.521370 3.193992 -1.207386 4.519545 -6.389904 0.000001 0.000006 0.000004 -2.373210 3.430884 0.612393 -11.542867 2.171129 -7.423324 -11.563308 21.658865 -5.394400 0.000002 -0.000002 0.000001 6.466950 1.024439 9.509201 0.768857 0.504178 3.033902 -0.396096 -4.104449 -1.266816 0.000000 -0.000000 -0.000000 -18.982125 5.659966 -28.921692 10.725402 2.961766 16.116461 4.563378 -3.610809 -8.353418 -0.000005 -0.000002 0.000001 
2.132379 108.610062 -4.138680 -9.511715 -0.062939 -9.196129 2.946541 -0.669030 6.517702 -2.947069 -2.832112 1.928490 2.110555 0.324229 -3.155703 -8.435778 2.323432 -4.550300 0.000002 0.000000 0.000001 -3.095877 -0.262713 2.656092 -0.448777 10.083759 3.213531 -0.406027 5.164609 -6.653904 0.000002 0.000002 0.000001 -2.225456 3.472719 0.793175 -11.297724 2.108631 -7.416040 -11.691104 21.890628 -5.866924 0.000003 -0.000004 -0.000000 6.588095 1.108080 9.601986 1.425813 0.298046 2.992346 -0.461193 -4.224154 -0.898294 0.000000 0.000000 0.000000 -19.162608 5.964850 -28.651329 11.307061 2.410979 15.510398 5.077814 -3.236245 -9.234257 -0.000002 0.000000 -0.000003 
2.165720 108.664284 -4.148098 -9.937116 0.059923 -9.290161 3.280682 -0.699475 6.522878 -2.326882 -2.840735 2.043094 1.589177 0.023056 -3.277109 -8.386319 2.526063 -4.579048 0.000001 -0.000002 -0.000000 -2.985474 -0.306463 2.677208 -0.228211 10.248995 3.059887 -0.635604 4.511066 -6.497278 -0.000002 0.000001 0.000003 -2.102002 3.523704 0.739723 -11.075513 2.357640 -7.274988 -12.034659 21.448782 -6.634237 -0.000002 -0.000003 0.000001 6.851246 1.193032 9.699205 1.656608 0.296801 3.057780 -0.442883 -4.364583 -1.092755 0.000000 0.000000 -0.000000 -19.154463 6.064090 -28.300194 10.518630 2.439355 15.085397 4.968682 -3.699809 -9.246431 -0.000002 0.000002 -0.000002 
2.204345 108.721161 -4.158244 -10.146714 0.109203 -9.379496 3.396531 -0.714551 6.446064 -3.955579 -3.116887 1.979639 3.255964 0.400333 -3.143816 -8.602089 2.454175 -4.519179 -0.000001 0.000000 0.000001 -3.092170 0.085907 2.807407 0.222035 11.070100 3.305564 -0.286760 4.762670 -6.656287 0.000001 0.000003 0.000008 -2.125278 3.338884 0.795603 -11.028694 2.434690 -7.164832 -11.644733 21.578767 -6.547404 0.000000 0.000000 0.000002 6.889713 1.230843 9.809732 1.801614 0.361249 3.031293 -0.408805 -4.570707 -1.492087 0.000000 0.000000 -0.000000 -19.125168 6.009313 -28.261028 10.747628 2.002630 14.604188 5.158066 -3.882351 -9.642313 -0.000000 -0.000000 0.000002 
